<svg width="1280" height="500" viewBox="0 0 1280 500" fill="none" xmlns="http://www.w3.org/2000/svg">
<path d="M0 40C0 17.9086 17.9086 0 40 0H1240C1262.09 0 1280 17.9086 1280 40V500H0L0 40Z" fill="#142B72"/>
<mask id="mask0" mask-type="alpha" maskUnits="userSpaceOnUse" x="0" y="0" width="1280" height="500">
<path d="M0 40C0 17.9086 17.9086 0 40 0H1240C1262.09 0 1280 17.9086 1280 40V500H0V40Z" fill="#4F8FDA"/>
</mask>
<g mask="url(#mask0)">
<path fill-rule="evenodd" clip-rule="evenodd" d="M793.362 55.3418C781.98 3.12359 790.797 -44.1171 800.557 -68.5L877.509 -37.7398C873.455 -27.6126 866.732 2.7945 874.343 37.7144C881.523 70.6558 901.627 108.839 953.153 138.876C981.333 155.303 1022.73 157.076 1063.55 144.21C1105.22 131.083 1133.85 106.787 1142.82 85.8627L1219 118.489C1196.89 170.036 1142.65 206.132 1088.48 223.201C1033.48 240.532 966.091 242.304 911.392 210.418C838.598 167.983 805.175 109.538 793.362 55.3418Z" fill="white" fill-opacity="0.03"/>
<path fill-rule="evenodd" clip-rule="evenodd" d="M337.923 378.235C275.968 378.235 225.744 427.616 225.744 488.529L225.743 665L136 665L136.001 488.529C136.001 378.885 226.405 290 337.923 290C449.442 290 539.846 378.885 539.846 488.529H450.103C450.103 427.616 399.878 378.235 337.923 378.235Z" fill="white" fill-opacity="0.03"/>
<circle cx="337.923" cy="491.923" r="57.6923" fill="white" fill-opacity="0.03"/>
</g>
</svg>
