<svg width="162" height="181" viewBox="0 0 162 181" fill="none" xmlns="http://www.w3.org/2000/svg">
<g opacity="0.5">
<path opacity="0.3" d="M59.9857 35.8389L118 180.42H0L59.9857 35.8389Z" fill="#F2CE4D"/>
<path fill-rule="evenodd" clip-rule="evenodd" d="M103.357 60.4481C103.157 59.5134 103.051 58.5436 103.051 57.5493C103.051 49.926 109.249 43.7461 116.894 43.7461C124.539 43.7461 130.737 49.926 130.737 57.5493C130.737 58.5436 130.632 59.5134 130.431 60.4481H142.882C142.988 59.4963 143.042 58.5291 143.042 57.5493C143.042 43.1497 131.335 31.4766 116.894 31.4766C102.97 31.4766 91.5872 42.3299 90.791 56.0156H90.7461V178.711H103.051V79.6723C103.051 79.6723 103.051 79.6723 103.051 79.6724V60.4481H103.357Z" fill="#2A72C7"/>
<path fill-rule="evenodd" clip-rule="evenodd" d="M75.0782 29.6865C75.2603 28.8091 75.3588 27.9012 75.3651 26.9715V26.7794C75.3134 19.2003 69.1357 13.0722 61.5226 13.0722C53.8774 13.0722 47.6798 19.2521 47.6798 26.8754C47.6798 27.8387 47.7787 28.7789 47.967 29.6865H35.5252C35.4259 28.7631 35.375 27.8252 35.375 26.8754C35.375 12.4759 47.0817 0.802734 61.5226 0.802734C75.4472 0.802734 86.8296 11.6561 87.6258 25.3417H87.6699V26.7427C87.67 26.7575 87.67 26.7724 87.6701 26.7872C87.6702 26.8166 87.6702 26.846 87.6702 26.8754C87.6702 26.9197 87.6701 26.964 87.6699 27.0082V178.711H75.3651V57.3722H75.3655V29.6865H75.0782Z" fill="#2A72C7"/>
<path fill-rule="evenodd" clip-rule="evenodd" d="M59.6655 81.9815C59.8745 81.0278 59.9846 80.0372 59.9846 79.0209C59.9846 71.3976 53.787 65.2177 46.1418 65.2177C38.4966 65.2177 32.2989 71.3976 32.2989 79.0209C32.2989 80.0372 32.409 81.0278 32.6181 81.9815H20.1609C20.0507 81.0098 19.9941 80.022 19.9941 79.0209C19.9941 64.6214 31.7008 52.9482 46.1418 52.9482C60.0664 52.9482 71.4487 63.8016 72.2449 77.4872H72.2894V178.711H59.9846V101.144C59.9846 101.144 59.9845 101.144 59.9844 101.144V81.9815H59.6655Z" fill="#2A72C7"/>
<circle cx="46.1416" cy="80.4434" r="7.69048" fill="#F05E00"/>
<circle cx="61.5245" cy="28.1485" r="7.69048" fill="#F05E00"/>
<circle cx="116.896" cy="58.91" r="7.69048" fill="#F05E00"/>
<path opacity="0.3" d="M44.6037 88.1338L56.9085 180.42H7.68945L44.6037 88.1338Z" fill="#F2CE4D"/>
<path opacity="0.3" d="M118.433 66.6003L106.129 180.419H161.5L118.433 66.6003Z" fill="#F2CE4D"/>
</g>
</svg>
