<svg width="30" height="30" viewBox="0 0 30 30" fill="none" xmlns="http://www.w3.org/2000/svg">
<path d="M7.5 15C10.2625 15 12.5 17.2375 12.5 20C12.5 22.7625 10.2625 25 7.5 25C4.7375 25 2.5 22.7625 2.5 20C2.5 17.2375 4.7375 15 7.5 15ZM18.125 2.5C21.9225 2.5 25 5.5775 25 9.375C25 13.1725 21.9225 16.25 18.125 16.25C14.3275 16.25 11.25 13.1725 11.25 9.375C11.25 5.5775 14.3275 2.5 18.125 2.5Z" fill="#142B72"/>
<path d="M20 18.75C22.0712 18.75 23.75 20.4288 23.75 22.5C23.75 24.5712 22.0712 26.25 20 26.25C17.9288 26.25 16.25 24.5712 16.25 22.5C16.25 20.4288 17.9288 18.75 20 18.75Z" fill="#4F8FDA"/>
</svg>
