<svg width="30" height="30" viewBox="0 0 30 30" fill="none" xmlns="http://www.w3.org/2000/svg">
<path d="M25 2.5C25.69 2.5 26.25 3.06 26.25 3.75V8.44625L15.0013 19.6963L14.9937 24.9938L20.3012 25.0012L26.25 19.0525V26.25C26.25 26.94 25.69 27.5 25 27.5H5C4.31 27.5 3.75 26.94 3.75 26.25V3.75C3.75 3.06 4.31 2.5 5 2.5H25ZM15 15H8.75V17.5H15V15ZM18.75 10H8.75V12.5H18.75V10Z" fill="#142B72"/>
<path d="M27.225 11.25L28.9925 13.0175L19.27 22.74L17.5 22.7375L17.5025 20.9725C21.2994 17.1756 23.4281 15.0469 27.225 11.25Z" fill="#4F8FDA"/>
</svg>
