<svg width="30" height="30" viewBox="0 0 30 30" fill="none" xmlns="http://www.w3.org/2000/svg">
<path d="M13.75 2.5C18.835 2.5 23.0325 6.295 23.6675 11.2063L26.48 15.63C26.665 15.9212 26.6275 16.355 26.1987 16.54L23.75 17.5875V21.25C23.75 22.6313 22.6313 23.75 21.25 23.75H18.7513L18.75 27.5H7.5V22.8825C7.5 21.4075 6.955 20.0113 5.945 18.7513C4.57125 17.0388 3.75 14.865 3.75 12.5C3.75 6.9775 8.2275 2.5 13.75 2.5ZM13.75 8.75C13.06 8.75 12.5 9.31 12.5 10V11.2487L11.25 11.25C10.56 11.25 10 11.81 10 12.5C10 13.19 10.56 13.75 11.25 13.75L12.5 13.7487V15C12.5 15.69 13.06 16.25 13.75 16.25C14.44 16.25 15 15.69 15 15V13.75H16.25C16.94 13.75 17.5 13.19 17.5 12.5C17.5 11.81 16.94 11.25 16.25 11.25H15V10C15 9.31 14.44 8.75 13.75 8.75Z" fill="#142B72"/>
</svg>
