<svg width="151" height="40" viewBox="0 0 151 40" fill="none" xmlns="http://www.w3.org/2000/svg">
<path d="M0 15.5858C0 14.2472 0.242599 13.0061 0.726713 11.8624C1.21191 10.7198 1.88122 9.72664 2.73574 8.88404C3.59025 8.04144 4.58988 7.37754 5.73248 6.89235C6.87508 6.40715 8.1054 6.16455 9.42128 6.16455C10.7372 6.16455 11.9664 6.41257 13.1101 6.90968C14.2538 7.40679 15.2458 8.0761 16.0884 8.9187C16.931 9.7613 17.6003 10.7544 18.0974 11.897C18.5935 13.0396 18.8426 14.27 18.8426 15.5858C18.8426 16.9017 18.5946 18.131 18.0974 19.2746C17.6003 20.4172 16.931 21.4104 16.0884 22.253C15.2447 23.0956 14.2527 23.766 13.1101 24.262C11.9675 24.758 10.7382 25.0071 9.42128 25.0071C8.42814 25.0071 7.42959 24.8046 6.42454 24.4006C5.42057 23.9967 4.61804 23.5179 4.01696 22.9634V35.2353H0V15.5858ZM4.01804 15.5858C4.01804 16.3255 4.16209 17.023 4.45126 17.6815C4.73934 18.34 5.12707 18.9107 5.61118 19.3959C6.09638 19.8811 6.66822 20.2678 7.32562 20.5559C7.9841 20.845 8.68157 20.9891 9.42128 20.9891C10.1599 20.9891 10.8585 20.845 11.5159 20.5559C12.1743 20.2678 12.7462 19.88 13.2303 19.3959C13.7144 18.9107 14.1021 18.34 14.3902 17.6815C14.6783 17.023 14.8234 16.3255 14.8234 15.5858C14.8234 14.8472 14.6783 14.1487 14.3902 13.4902C14.1011 12.8317 13.7144 12.2609 13.2303 11.7757C12.7462 11.2905 12.1733 10.9039 11.5159 10.6158C10.8574 10.3277 10.1588 10.1826 9.42128 10.1826C8.68157 10.1826 7.9841 10.3266 7.32562 10.6158C6.66714 10.905 6.09638 11.2916 5.61118 11.7757C5.12707 12.2609 4.73934 12.8317 4.45126 13.4902C4.16209 14.1487 4.01804 14.8472 4.01804 15.5858Z" fill="white"/>
<path d="M42.1406 15.5512C42.1406 14.2353 42.3886 13.006 42.8847 11.8624C43.3807 10.7198 44.0565 9.72663 44.911 8.88403C45.7644 8.04143 46.7641 7.37212 47.9067 6.87501C49.0504 6.37898 50.2796 6.12988 51.5955 6.12988C52.9114 6.12988 54.1417 6.3779 55.2843 6.87501C56.4269 7.37212 57.42 8.04143 58.2626 8.88403C59.1052 9.72663 59.7745 10.7198 60.2716 11.8624C60.7677 13.005 61.0157 14.2353 61.0157 15.5512V24.2446H56.9976V23.2743C55.4272 24.406 53.6262 24.9714 51.5944 24.9714C50.1626 24.9714 48.863 24.7288 47.6977 24.2446C46.5312 23.7595 45.5381 23.0901 44.7193 22.2356C43.8995 21.3811 43.2648 20.3826 42.8143 19.24C42.3648 18.0974 42.1406 16.8681 42.1406 15.5512ZM46.1576 15.5512C46.1576 16.2909 46.3016 16.9883 46.5919 17.6468C46.8811 18.3053 47.2688 18.8771 47.7561 19.3613C48.2424 19.8465 48.8153 20.2331 49.476 20.5212C50.1366 20.8104 50.8374 20.9544 51.5792 20.9544C52.32 20.9544 53.0208 20.8223 53.6803 20.5558C54.341 20.2905 54.9139 19.9147 55.4002 19.4306C55.8865 18.9454 56.2753 18.3746 56.5644 17.7161C56.8536 17.0577 56.9987 16.3364 56.9987 15.5512C56.9987 14.8125 56.8536 14.114 56.5644 13.4555C56.2753 12.797 55.8875 12.2263 55.4002 11.7411C54.9139 11.2559 54.341 10.8692 53.6803 10.5811C53.0197 10.2931 52.32 10.1479 51.5792 10.1479C50.8374 10.1479 50.1366 10.292 49.476 10.5811C48.8153 10.8703 48.2424 11.2569 47.7561 11.7411C47.2699 12.2263 46.8821 12.797 46.5919 13.4555C46.3027 14.114 46.1576 14.8125 46.1576 15.5512Z" fill="white"/>
<path d="M67.9204 13.0234L74.2583 6.92706H79.6615L72.076 14.3047L79.6615 24.2458H74.4316L69.063 17.2148L67.955 18.2881V24.2458H63.9023V0H67.9204V13.0234Z" fill="white"/>
<path d="M84.7496 15.8285C84.7723 16.5443 84.9337 17.2136 85.2337 17.8375C85.5337 18.4602 85.9268 19.0039 86.412 19.4653C86.8962 19.9277 87.4626 20.2916 88.1092 20.557C88.7557 20.8223 89.4359 20.9555 90.1528 20.9555C91.3528 20.9555 92.3806 20.6609 93.2351 20.0728C94.0896 19.4837 94.7135 18.6931 95.1055 17.6999H99.5037C99.1106 19.0158 98.5907 20.1367 97.9452 21.0595C97.2987 21.9833 96.56 22.7339 95.7294 23.3111C94.8976 23.8884 94.0084 24.3097 93.0619 24.575C92.1153 24.8403 91.1449 24.9736 90.1517 24.9736C88.8359 24.9736 87.6066 24.7255 86.4629 24.2295C85.3203 23.7335 84.325 23.0642 83.4781 22.2205C82.6301 21.3779 81.9608 20.3848 81.4691 19.2422C80.9763 18.0996 80.7305 16.8692 80.7305 15.5534C80.7305 14.2375 80.9763 13.0082 81.4691 11.8646C81.9608 10.722 82.6301 9.72882 83.4781 8.88623C84.324 8.04363 85.3203 7.37431 86.4629 6.8772C87.6066 6.38118 88.8359 6.13208 90.1517 6.13208C91.6063 6.13208 92.9102 6.39742 94.0658 6.92919C95.2203 7.46096 96.2016 8.17034 97.0095 9.05951C97.8164 9.94868 98.4467 10.9819 98.8972 12.1591C99.3478 13.3364 99.5839 14.5613 99.6066 15.8306H84.7496V15.8285ZM95.1055 13.1263C94.759 12.1559 94.147 11.3317 93.2698 10.6494C92.3925 9.96926 91.3658 9.6281 90.1875 9.6281C89.0102 9.6281 87.9824 9.96926 87.1052 10.6494C86.2269 11.3306 85.6149 12.1559 85.2695 13.1263H95.1055Z" fill="white"/>
<path d="M131.117 15.5512C131.117 14.2353 131.365 13.006 131.861 11.8624C132.357 10.7198 133.033 9.72663 133.888 8.88403C134.741 8.04143 135.741 7.37212 136.883 6.87501C138.027 6.37898 139.256 6.12988 140.572 6.12988C141.888 6.12988 143.118 6.3779 144.261 6.87501C145.403 7.37212 146.397 8.04143 147.239 8.88403C148.082 9.72663 148.751 10.7198 149.248 11.8624C149.744 13.005 149.992 14.2353 149.992 15.5512V24.2446H145.974V23.2743C144.404 24.406 142.603 24.9714 140.571 24.9714C139.139 24.9714 137.84 24.7288 136.674 24.2446C135.508 23.7595 134.515 23.0901 133.696 22.2356C132.876 21.3811 132.241 20.3826 131.791 19.24C131.341 18.0974 131.117 16.8681 131.117 15.5512ZM135.134 15.5512C135.134 16.2909 135.278 16.9883 135.568 17.6468C135.859 18.3053 136.245 18.8771 136.733 19.3613C137.22 19.8454 137.792 20.2331 138.453 20.5212C139.113 20.8104 139.814 20.9544 140.556 20.9544C141.297 20.9544 141.997 20.8223 142.657 20.5558C143.318 20.2905 143.89 19.9147 144.377 19.4306C144.863 18.9454 145.252 18.3746 145.541 17.7161C145.831 17.0577 145.975 16.3364 145.975 15.5512C145.975 14.8125 145.83 14.114 145.541 13.4555C145.252 12.797 144.864 12.2263 144.377 11.7411C143.89 11.2559 143.318 10.8692 142.657 10.5811C141.996 10.2931 141.297 10.1479 140.556 10.1479C139.814 10.1479 139.113 10.292 138.453 10.5811C137.792 10.8703 137.219 11.2569 136.733 11.7411C136.246 12.2263 135.859 12.797 135.568 13.4555C135.278 14.114 135.134 14.8125 135.134 15.5512Z" fill="white"/>
<path d="M21.6407 11.8624C22.1378 10.7198 22.8072 9.72663 23.6498 8.88403C24.4934 8.04143 25.4855 7.37212 26.6281 6.87501C27.7718 6.37898 29.001 6.12988 30.3169 6.12988C31.6328 6.12988 32.8631 6.3779 34.0057 6.87501C35.1483 7.37212 36.1479 8.04143 37.0014 8.88403C37.8559 9.72663 38.5317 10.7198 39.0277 11.8624C39.5237 13.005 39.7718 14.2342 39.7718 15.5512H35.7537C35.7537 14.8125 35.6097 14.114 35.3194 13.4555C35.0292 12.797 34.6425 12.2263 34.1552 11.7411C33.6689 11.2559 33.096 10.8692 32.4353 10.5811C31.7747 10.2931 31.0739 10.1479 30.3321 10.1479C29.5913 10.1479 28.8905 10.292 28.231 10.5811C27.5703 10.8703 26.9974 11.2569 26.5111 11.7411C26.0238 12.2263 25.636 12.797 25.3469 13.4555C25.0566 14.114 24.9126 14.8125 24.9126 15.5512V23.2753V24.2457H20.8945V15.5522C20.8967 14.2353 21.1436 13.006 21.6407 11.8624Z" fill="white"/>
<path d="M102.689 11.8624C103.186 10.7198 103.856 9.72663 104.698 8.88403C105.542 8.04143 106.534 7.37212 107.677 6.87501C108.82 6.37898 110.05 6.12988 111.366 6.12988C112.681 6.12988 113.912 6.3779 115.054 6.87501C116.197 7.37212 117.197 8.04143 118.05 8.88403C118.904 9.72663 119.58 10.7198 120.076 11.8624C120.572 13.005 120.82 14.2342 120.82 15.5512H116.804C116.804 14.8125 116.66 14.114 116.37 13.4555C116.08 12.797 115.693 12.2263 115.206 11.7411C114.72 11.2559 114.147 10.8692 113.486 10.5811C112.825 10.2931 112.125 10.1479 111.383 10.1479C110.642 10.1479 109.941 10.292 109.282 10.5811C108.621 10.8703 108.048 11.2569 107.562 11.7411C107.076 12.2263 106.687 12.797 106.398 13.4555C106.107 14.114 105.963 14.8125 105.963 15.5512V23.2753V24.2457H101.945V15.5522C101.945 14.2353 102.193 13.006 102.689 11.8624Z" fill="white"/>
<path d="M128.4 6.927H124.312V27.1526H128.4V6.927Z" fill="white"/>
<path d="M127.133 27.1516H124.315H122.306H118.219C118.219 27.8448 118.34 28.5021 118.583 29.126C118.825 29.7498 119.172 30.2913 119.621 30.7538C120.072 31.2151 120.609 31.579 121.233 31.8444C121.856 32.1097 122.549 32.2429 123.311 32.2429C124.027 32.2429 124.696 32.1336 125.32 31.9137C125.944 31.6938 126.48 31.3646 126.931 30.9271C127.381 30.4884 127.739 29.9512 128.004 29.3166C128.269 28.6808 128.402 27.9596 128.402 27.1516H127.133Z" fill="white"/>
<path d="M111.451 18.0336C112.19 18.0336 112.802 17.791 113.287 17.3058C113.772 16.8217 114.015 16.2325 114.015 15.5394C114.015 14.8007 113.772 14.1888 113.287 13.7036C112.803 13.2184 112.191 12.9758 111.451 12.9758C110.758 12.9758 110.17 13.2184 109.685 13.7036C109.2 14.1888 108.957 14.8007 108.957 15.5394C108.957 16.2325 109.2 16.8206 109.685 17.3058C110.169 17.791 110.758 18.0336 111.451 18.0336Z" fill="white"/>
<path d="M140.518 18.0336C141.256 18.0336 141.868 17.791 142.353 17.3058C142.839 16.8217 143.081 16.2325 143.081 15.5394C143.081 14.8007 142.839 14.1888 142.353 13.7036C141.869 13.2184 141.257 12.9758 140.518 12.9758C139.825 12.9758 139.236 13.2184 138.751 13.7036C138.266 14.1888 138.023 14.8007 138.023 15.5394C138.023 16.2325 138.266 16.8206 138.751 17.3058C139.236 17.791 139.826 18.0336 140.518 18.0336Z" fill="white"/>
<path d="M118.621 39.0778C117.136 38.4507 115.85 37.5745 114.799 36.472C113.74 35.3608 112.918 34.1078 112.356 32.7496C111.793 31.3904 111.5 29.9273 111.485 28.4002C111.472 27.145 111.682 25.8876 112.108 24.6497L115.464 26.0663C115.234 26.8244 115.124 27.602 115.136 28.3872C115.152 29.4377 115.352 30.4417 115.733 31.372C116.113 32.3034 116.672 33.1623 117.395 33.9247C118.127 34.6958 119.008 35.3023 120.011 35.7258C121.013 36.1493 122.061 36.3572 123.123 36.3442C124.175 36.3301 125.18 36.133 126.112 35.7551C127.047 35.3771 127.908 34.8204 128.668 34.1002C129.116 33.6778 129.511 33.1959 129.849 32.6619L133.231 34.0894C132.679 35.0847 132 35.9695 131.206 36.7265C130.097 37.7825 128.849 38.5969 127.498 39.1471C126.145 39.6962 124.683 39.9821 123.152 39.9984C121.631 40.0146 120.106 39.7038 118.621 39.0778Z" fill="white"/>
</svg>
